
<global>
ampeg_release=1.5
</global>

<group>
group_label=RR1

<region>
hivel=127
key=A#3
lovel=87
offset=562
sample=Vibraphone_SoftMallets_Staccato_F_A#3_RR1.opus
</region>

<region>
hivel=127
key=A#4
lovel=87
offset=711
sample=Vibraphone_SoftMallets_Staccato_F_A#4_RR1.opus
</region>

<region>
hivel=127
key=A#5
lovel=87
offset=5686
sample=Vibraphone_SoftMallets_Staccato_F_A#5_RR1.opus
</region>

<region>
hivel=127
key=A3
lovel=87
offset=507
sample=Vibraphone_SoftMallets_Staccato_F_A3_RR1.opus
</region>

<region>
hivel=127
key=A4
lovel=87
offset=503
sample=Vibraphone_SoftMallets_Staccato_F_A4_RR1.opus
</region>

<region>
hivel=127
key=A5
lovel=87
offset=1643
sample=Vibraphone_SoftMallets_Staccato_F_A5_RR1.opus
</region>

<region>
hivel=127
key=B3
lovel=87
offset=510
sample=Vibraphone_SoftMallets_Staccato_F_B3_RR1.opus
</region>

<region>
hivel=127
key=B4
lovel=87
offset=692
sample=Vibraphone_SoftMallets_Staccato_F_B4_RR1.opus
</region>

<region>
hivel=127
key=B5
lovel=87
offset=729
sample=Vibraphone_SoftMallets_Staccato_F_B5_RR1.opus
</region>

<region>
hivel=127
key=C#4
lovel=87
sample=Vibraphone_SoftMallets_Staccato_F_C#4_RR1.opus
</region>

<region>
hivel=127
key=C#5
lovel=87
offset=596
sample=Vibraphone_SoftMallets_Staccato_F_C#5_RR1.opus
</region>

<region>
hivel=127
key=C#6
lovel=87
offset=478
sample=Vibraphone_SoftMallets_Staccato_F_C#6_RR1.opus
</region>

<region>
hikey=C4
hivel=127
lokey=C4
lovel=87
offset=480
sample=Vibraphone_SoftMallets_Staccato_F_C4_RR1.opus
</region>

<region>
hivel=127
key=C5
lovel=87
offset=676
sample=Vibraphone_SoftMallets_Staccato_F_C5_RR1.opus
</region>

<region>
hivel=127
key=C6
lovel=87
offset=548
sample=Vibraphone_SoftMallets_Staccato_F_C6_RR1.opus
</region>

<region>
hivel=127
key=D#4
lovel=87
offset=512
sample=Vibraphone_SoftMallets_Staccato_F_D#4_RR1.opus
</region>

<region>
hivel=127
key=D#5
lovel=87
offset=531
sample=Vibraphone_SoftMallets_Staccato_F_D#5_RR1.opus
</region>

<region>
hivel=127
key=D#6
lovel=87
offset=3288
sample=Vibraphone_SoftMallets_Staccato_F_D#6_RR1.opus
</region>

<region>
hivel=127
key=D4
lovel=87
offset=506
sample=Vibraphone_SoftMallets_Staccato_F_D4_RR1.opus
</region>

<region>
hivel=127
key=D5
lovel=87
offset=549
sample=Vibraphone_SoftMallets_Staccato_F_D5_RR1.opus
</region>

<region>
hivel=127
key=D6
lovel=87
offset=1321
sample=Vibraphone_SoftMallets_Staccato_F_D6_RR1.opus
</region>

<region>
hivel=127
key=E4
lovel=87
offset=508
sample=Vibraphone_SoftMallets_Staccato_F_E4_RR1.opus
</region>

<region>
hivel=127
key=E5
lovel=87
offset=499
sample=Vibraphone_SoftMallets_Staccato_F_E5_RR1.opus
</region>

<region>
hivel=127
key=E6
lovel=87
offset=535
sample=Vibraphone_SoftMallets_Staccato_F_E6_RR1.opus
</region>

<region>
hivel=127
key=F#3
lovel=87
offset=664
sample=Vibraphone_SoftMallets_Staccato_F_F#3_RR1.opus
</region>

<region>
hivel=127
key=F#4
lovel=87
offset=1996
sample=Vibraphone_SoftMallets_Staccato_F_F#4_RR1.opus
</region>

<region>
hivel=127
key=F#5
lovel=87
offset=552
sample=Vibraphone_SoftMallets_Staccato_F_F#5_RR1.opus
</region>

<region>
hivel=127
key=F3
lovel=87
offset=497
sample=Vibraphone_SoftMallets_Staccato_F_F3_RR1.opus
</region>

<region>
hivel=127
key=F4
lovel=87
offset=503
sample=Vibraphone_SoftMallets_Staccato_F_F4_RR1.opus
</region>

<region>
hivel=127
key=F5
lovel=87
offset=589
sample=Vibraphone_SoftMallets_Staccato_F_F5_RR1.opus
</region>

<region>
hivel=127
key=F6
lovel=87
offset=498
sample=Vibraphone_SoftMallets_Staccato_F_F6_RR1.opus
</region>

<region>
hivel=127
key=G#3
lovel=87
offset=510
sample=Vibraphone_SoftMallets_Staccato_F_G#3_RR1.opus
</region>

<region>
hivel=127
key=G#4
lovel=87
offset=500
sample=Vibraphone_SoftMallets_Staccato_F_G#4_RR1.opus
</region>

<region>
hivel=127
key=G#5
lovel=87
offset=2288
sample=Vibraphone_SoftMallets_Staccato_F_G#5_RR1.opus
</region>

<region>
hivel=127
key=G3
lovel=87
offset=512
sample=Vibraphone_SoftMallets_Staccato_F_G3_RR1.opus
</region>

<region>
hivel=127
key=G4
lovel=87
offset=500
sample=Vibraphone_SoftMallets_Staccato_F_G4_RR1.opus
</region>

<region>
hivel=127
key=G5
lovel=87
offset=472
sample=Vibraphone_SoftMallets_Staccato_F_G5_RR1.opus
</region>

<region>
hivel=86
key=A#3
lovel=25
offset=3515
sample=Vibraphone_SoftMallets_Staccato_MF_A#3_RR1.opus
</region>

<region>
hivel=86
key=A#4
lovel=25
offset=6142
sample=Vibraphone_SoftMallets_Staccato_MF_A#4_RR1.opus
</region>

<region>
hivel=86
key=A#5
lovel=25
offset=2945
sample=Vibraphone_SoftMallets_Staccato_MF_A#5_RR1.opus
</region>

<region>
hivel=86
key=A3
lovel=25
offset=516
sample=Vibraphone_SoftMallets_Staccato_MF_A3_RR1.opus
</region>

<region>
hivel=86
key=A4
lovel=25
offset=793
sample=Vibraphone_SoftMallets_Staccato_MF_A4_RR1.opus
</region>

<region>
hivel=86
key=A5
lovel=25
offset=488
sample=Vibraphone_SoftMallets_Staccato_MF_A5_RR1.opus
</region>

<region>
hivel=86
key=B3
lovel=25
offset=5375
sample=Vibraphone_SoftMallets_Staccato_MF_B3_RR1.opus
</region>

<region>
hivel=86
key=B4
lovel=25
offset=694
sample=Vibraphone_SoftMallets_Staccato_MF_B4_RR1.opus
</region>

<region>
hivel=86
key=B5
lovel=25
offset=3657
sample=Vibraphone_SoftMallets_Staccato_MF_B5_RR1.opus
</region>

<region>
hivel=86
key=C#4
lovel=25
offset=6322
sample=Vibraphone_SoftMallets_Staccato_MF_C#4_RR1.opus
</region>

<region>
hivel=86
key=C#5
lovel=25
offset=3487
sample=Vibraphone_SoftMallets_Staccato_MF_C#5_RR1.opus
</region>

<region>
hivel=86
key=C#6
lovel=25
offset=484
sample=Vibraphone_SoftMallets_Staccato_MF_C#6_RR1.opus
</region>

<region>
hikey=C4
hivel=86
lokey=C4
lovel=25
offset=478
sample=Vibraphone_SoftMallets_Staccato_MF_C4_RR1.opus
</region>

<region>
hivel=86
key=C5
lovel=25
offset=497
sample=Vibraphone_SoftMallets_Staccato_MF_C5_RR1.opus
</region>

<region>
hivel=86
key=C6
lovel=25
offset=5338
sample=Vibraphone_SoftMallets_Staccato_MF_C6_RR1.opus
</region>

<region>
hivel=86
key=D#4
lovel=25
offset=769
sample=Vibraphone_SoftMallets_Staccato_MF_D#4_RR1.opus
</region>

<region>
hivel=86
key=D#5
lovel=25
offset=578
sample=Vibraphone_SoftMallets_Staccato_MF_D#5_RR1.opus
</region>

<region>
hivel=86
key=D#6
lovel=25
offset=502
sample=Vibraphone_SoftMallets_Staccato_MF_D#6_RR1.opus
</region>

<region>
hivel=86
key=D4
lovel=25
offset=6756
sample=Vibraphone_SoftMallets_Staccato_MF_D4_RR1.opus
</region>

<region>
hivel=86
key=D5
lovel=25
offset=477
sample=Vibraphone_SoftMallets_Staccato_MF_D5_RR1.opus
</region>

<region>
hivel=86
key=D6
lovel=25
offset=509
sample=Vibraphone_SoftMallets_Staccato_MF_D6_RR1.opus
</region>

<region>
hivel=86
key=E4
lovel=25
offset=505
sample=Vibraphone_SoftMallets_Staccato_MF_E4_RR1.opus
</region>

<region>
hivel=86
key=E5
lovel=25
offset=516
sample=Vibraphone_SoftMallets_Staccato_MF_E5_RR1.opus
</region>

<region>
hivel=86
key=E6
lovel=25
offset=4347
sample=Vibraphone_SoftMallets_Staccato_MF_E6_RR1.opus
</region>

<region>
hivel=86
key=F#3
lovel=25
offset=5075
sample=Vibraphone_SoftMallets_Staccato_MF_F#3_RR1.opus
</region>

<region>
hivel=86
key=F#4
lovel=25
offset=1386
sample=Vibraphone_SoftMallets_Staccato_MF_F#4_RR1.opus
</region>

<region>
hivel=86
key=F#5
lovel=25
offset=571
sample=Vibraphone_SoftMallets_Staccato_MF_F#5_RR1.opus
</region>

<region>
hivel=86
key=F3
lovel=25
offset=5429
sample=Vibraphone_SoftMallets_Staccato_MF_F3_RR1.opus
</region>

<region>
hivel=86
key=F4
lovel=25
offset=5756
sample=Vibraphone_SoftMallets_Staccato_MF_F4_RR1.opus
</region>

<region>
hivel=86
key=F5
lovel=25
offset=515
sample=Vibraphone_SoftMallets_Staccato_MF_F5_RR1.opus
</region>

<region>
hivel=86
key=F6
lovel=25
offset=3087
sample=Vibraphone_SoftMallets_Staccato_MF_F6_RR1.opus
</region>

<region>
hivel=86
key=G#3
lovel=25
offset=3754
sample=Vibraphone_SoftMallets_Staccato_MF_G#3_RR1.opus
</region>

<region>
hivel=86
key=G#4
lovel=25
offset=833
sample=Vibraphone_SoftMallets_Staccato_MF_G#4_RR1.opus
</region>

<region>
hivel=86
key=G#5
lovel=25
offset=556
sample=Vibraphone_SoftMallets_Staccato_MF_G#5_RR1.opus
</region>

<region>
hivel=86
key=G3
lovel=25
offset=4420
sample=Vibraphone_SoftMallets_Staccato_MF_G3_RR1.opus
</region>

<region>
hivel=86
key=G4
lovel=25
offset=507
sample=Vibraphone_SoftMallets_Staccato_MF_G4_RR1.opus
</region>

<region>
hivel=86
key=G5
lovel=25
offset=508
sample=Vibraphone_SoftMallets_Staccato_MF_G5_RR1.opus
</region>

<region>
hivel=24
key=A#3
lovel=0
offset=6573
sample=Vibraphone_SoftMallets_Staccato_P_A#3_RR1.opus
volume=20
</region>

<region>
hivel=24
key=A#4
lovel=0
offset=3546
sample=Vibraphone_SoftMallets_Staccato_P_A#4_RR1.opus
volume=20
</region>

<region>
hivel=24
key=A#5
lovel=0
offset=4453
sample=Vibraphone_SoftMallets_Staccato_P_A#5_RR1.opus
volume=20
</region>

<region>
hivel=24
key=A3
lovel=0
offset=6458
sample=Vibraphone_SoftMallets_Staccato_P_A3_RR1.opus
volume=20
</region>

<region>
hivel=24
key=A4
lovel=0
offset=3406
sample=Vibraphone_SoftMallets_Staccato_P_A4_RR1.opus
volume=20
</region>

<region>
hivel=24
key=A5
lovel=0
offset=5239
sample=Vibraphone_SoftMallets_Staccato_P_A5_RR1.opus
volume=20
</region>

<region>
hivel=24
key=B3
lovel=0
offset=4221
sample=Vibraphone_SoftMallets_Staccato_P_B3_RR1.opus
volume=20
</region>

<region>
hivel=24
key=B4
lovel=0
offset=2799
sample=Vibraphone_SoftMallets_Staccato_P_B4_RR1.opus
volume=20
</region>

<region>
hivel=24
key=B5
lovel=0
offset=3666
sample=Vibraphone_SoftMallets_Staccato_P_B5_RR1.opus
volume=20
</region>

<region>
hivel=24
key=C#4
lovel=0
offset=3486
sample=Vibraphone_SoftMallets_Staccato_P_C#4_RR1.opus
volume=20
</region>

<region>
hivel=24
key=C#5
lovel=0
offset=4711
sample=Vibraphone_SoftMallets_Staccato_P_C#5_RR1.opus
volume=20
</region>

<region>
hivel=24
key=C#6
lovel=0
offset=4427
sample=Vibraphone_SoftMallets_Staccato_P_C#6_RR1.opus
volume=20
</region>

<region>
hikey=C4
hivel=24
lokey=C4
lovel=0
offset=5558
sample=Vibraphone_SoftMallets_Staccato_P_C4_RR1.opus
volume=20
</region>

<region>
hivel=24
key=C5
lovel=0
offset=4474
sample=Vibraphone_SoftMallets_Staccato_P_C5_RR1.opus
volume=20
</region>

<region>
hivel=24
key=C6
lovel=0
offset=5094
sample=Vibraphone_SoftMallets_Staccato_P_C6_RR1.opus
volume=20
</region>

<region>
hivel=24
key=D#4
lovel=0
offset=5917
sample=Vibraphone_SoftMallets_Staccato_P_D#4_RR1.opus
volume=20
</region>

<region>
hivel=24
key=D#5
lovel=0
offset=9236
sample=Vibraphone_SoftMallets_Staccato_P_D#5_RR1.opus
volume=20
</region>

<region>
hivel=24
key=D#6
lovel=0
offset=4930
sample=Vibraphone_SoftMallets_Staccato_P_D#6_RR1.opus
volume=20
</region>

<region>
hivel=24
key=D4
lovel=0
offset=4962
sample=Vibraphone_SoftMallets_Staccato_P_D4_RR1.opus
volume=20
</region>

<region>
hivel=24
key=D5
lovel=0
offset=4885
sample=Vibraphone_SoftMallets_Staccato_P_D5_RR1.opus
volume=20
</region>

<region>
hivel=24
key=D6
lovel=0
offset=5755
sample=Vibraphone_SoftMallets_Staccato_P_D6_RR1.opus
volume=20
</region>

<region>
hivel=24
key=E4
lovel=0
offset=3929
sample=Vibraphone_SoftMallets_Staccato_P_E4_RR1.opus
volume=20
</region>

<region>
hivel=24
key=E5
lovel=0
offset=4295
sample=Vibraphone_SoftMallets_Staccato_P_E5_RR1.opus
volume=20
</region>

<region>
hivel=24
key=E6
lovel=0
offset=4755
sample=Vibraphone_SoftMallets_Staccato_P_E6_RR1.opus
volume=20
</region>

<region>
hivel=24
key=F#3
lovel=0
offset=3393
sample=Vibraphone_SoftMallets_Staccato_P_F#3_RR1.opus
volume=20
</region>

<region>
hivel=24
key=F#4
lovel=0
offset=4233
sample=Vibraphone_SoftMallets_Staccato_P_F#4_RR1.opus
volume=20
</region>

<region>
hivel=24
key=F#5
lovel=0
offset=5901
sample=Vibraphone_SoftMallets_Staccato_P_F#5_RR1.opus
volume=20
</region>

<region>
hivel=24
key=F3
lovel=0
offset=5888
sample=Vibraphone_SoftMallets_Staccato_P_F3_RR1.opus
volume=20
</region>

<region>
hivel=24
key=F4
lovel=0
offset=2977
sample=Vibraphone_SoftMallets_Staccato_P_F4_RR1.opus
volume=20
</region>

<region>
hivel=24
key=F5
lovel=0
offset=5492
sample=Vibraphone_SoftMallets_Staccato_P_F5_RR1.opus
volume=20
</region>

<region>
hivel=24
key=F6
lovel=0
offset=4740
sample=Vibraphone_SoftMallets_Staccato_P_F6_RR1.opus
volume=20
</region>

<region>
hivel=24
key=G#3
lovel=0
offset=3745
sample=Vibraphone_SoftMallets_Staccato_P_G#3_RR1.opus
volume=20
</region>

<region>
hivel=24
key=G#4
lovel=0
offset=5738
sample=Vibraphone_SoftMallets_Staccato_P_G#4_RR1.opus
volume=20
</region>

<region>
hivel=24
key=G#5
lovel=0
offset=4709
sample=Vibraphone_SoftMallets_Staccato_P_G#5_RR1.opus
volume=20
</region>

<region>
hivel=24
key=G3
lovel=0
offset=6485
sample=Vibraphone_SoftMallets_Staccato_P_G3_RR1.opus
volume=20
</region>

<region>
hivel=24
key=G4
lovel=0
offset=2970
sample=Vibraphone_SoftMallets_Staccato_P_G4_RR1.opus
volume=20
</region>

<region>
hivel=24
key=G5
lovel=0
offset=4543
sample=Vibraphone_SoftMallets_Staccato_P_G5_RR1.opus
volume=20
</region>
</group>

<group>
group_label=RR2

<region>
hivel=127
key=A#3
lovel=87
offset=507
sample=Vibraphone_SoftMallets_Staccato_F_A#3_RR2.opus
</region>

<region>
hivel=127
key=A#4
lovel=87
offset=590
sample=Vibraphone_SoftMallets_Staccato_F_A#4_RR2.opus
</region>

<region>
hivel=127
key=A#5
lovel=87
offset=4157
sample=Vibraphone_SoftMallets_Staccato_F_A#5_RR2.opus
</region>

<region>
hivel=127
key=A3
lovel=87
offset=509
sample=Vibraphone_SoftMallets_Staccato_F_A3_RR2.opus
</region>

<region>
hivel=127
key=A4
lovel=87
offset=508
sample=Vibraphone_SoftMallets_Staccato_F_A4_RR2.opus
</region>

<region>
hivel=127
key=A5
lovel=87
offset=1511
sample=Vibraphone_SoftMallets_Staccato_F_A5_RR2.opus
</region>

<region>
hivel=127
key=B3
lovel=87
offset=507
sample=Vibraphone_SoftMallets_Staccato_F_B3_RR2.opus
</region>

<region>
hivel=127
key=B4
lovel=87
offset=512
sample=Vibraphone_SoftMallets_Staccato_F_B4_RR2.opus
</region>

<region>
hivel=127
key=B5
lovel=87
offset=2323
sample=Vibraphone_SoftMallets_Staccato_F_B5_RR2.opus
</region>

<region>
hivel=127
key=C#4
lovel=87
offset=502
sample=Vibraphone_SoftMallets_Staccato_F_C#4_RR2.opus
</region>

<region>
hivel=127
key=C#5
lovel=87
offset=585
sample=Vibraphone_SoftMallets_Staccato_F_C#5_RR2.opus
</region>

<region>
hivel=127
key=C#6
lovel=87
offset=475
sample=Vibraphone_SoftMallets_Staccato_F_C#6_RR2.opus
</region>

<region>
hikey=C4
hivel=127
lokey=C4
lovel=87
offset=495
sample=Vibraphone_SoftMallets_Staccato_F_C4_RR2.opus
</region>

<region>
hivel=127
key=C5
lovel=87
offset=510
sample=Vibraphone_SoftMallets_Staccato_F_C5_RR2.opus
</region>

<region>
hivel=127
key=C6
lovel=87
offset=2250
sample=Vibraphone_SoftMallets_Staccato_F_C6_RR2.opus
</region>

<region>
hivel=127
key=D#4
lovel=87
offset=569
sample=Vibraphone_SoftMallets_Staccato_F_D#4_RR2.opus
</region>

<region>
hivel=127
key=D#5
lovel=87
offset=571
sample=Vibraphone_SoftMallets_Staccato_F_D#5_RR2.opus
</region>

<region>
hivel=127
key=D#6
lovel=87
offset=842
sample=Vibraphone_SoftMallets_Staccato_F_D#6_RR2.opus
</region>

<region>
hivel=127
key=D4
lovel=87
offset=502
sample=Vibraphone_SoftMallets_Staccato_F_D4_RR2.opus
</region>

<region>
hivel=127
key=D5
lovel=87
offset=877
sample=Vibraphone_SoftMallets_Staccato_F_D5_RR2.opus
</region>

<region>
hivel=127
key=D6
lovel=87
offset=2055
sample=Vibraphone_SoftMallets_Staccato_F_D6_RR2.opus
</region>

<region>
hivel=127
key=E4
lovel=87
offset=591
sample=Vibraphone_SoftMallets_Staccato_F_E4_RR2.opus
</region>

<region>
hivel=127
key=E5
lovel=87
offset=662
sample=Vibraphone_SoftMallets_Staccato_F_E5_RR2.opus
</region>

<region>
hivel=127
key=E6
lovel=87
offset=695
sample=Vibraphone_SoftMallets_Staccato_F_E6_RR2.opus
</region>

<region>
hivel=127
key=F#3
lovel=87
offset=491
sample=Vibraphone_SoftMallets_Staccato_F_F#3_RR2.opus
</region>

<region>
hivel=127
key=F#4
lovel=87
offset=1645
sample=Vibraphone_SoftMallets_Staccato_F_F#4_RR2.opus
</region>

<region>
hivel=127
key=F#5
lovel=87
offset=484
sample=Vibraphone_SoftMallets_Staccato_F_F#5_RR2.opus
</region>

<region>
hivel=127
key=F3
lovel=87
offset=536
sample=Vibraphone_SoftMallets_Staccato_F_F3_RR2.opus
</region>

<region>
hivel=127
key=F4
lovel=87
offset=538
sample=Vibraphone_SoftMallets_Staccato_F_F4_RR2.opus
</region>

<region>
hivel=127
key=F5
lovel=87
offset=494
sample=Vibraphone_SoftMallets_Staccato_F_F5_RR2.opus
</region>

<region>
hivel=127
key=F6
lovel=87
offset=535
sample=Vibraphone_SoftMallets_Staccato_F_F6_RR2.opus
</region>

<region>
hivel=127
key=G#3
lovel=87
offset=678
sample=Vibraphone_SoftMallets_Staccato_F_G#3_RR2.opus
</region>

<region>
hivel=127
key=G#4
lovel=87
offset=724
sample=Vibraphone_SoftMallets_Staccato_F_G#4_RR2.opus
</region>

<region>
hivel=127
key=G#5
lovel=87
offset=4582
sample=Vibraphone_SoftMallets_Staccato_F_G#5_RR2.opus
</region>

<region>
hivel=127
key=G3
lovel=87
offset=510
sample=Vibraphone_SoftMallets_Staccato_F_G3_RR2.opus
</region>

<region>
hivel=127
key=G4
lovel=87
offset=499
sample=Vibraphone_SoftMallets_Staccato_F_G4_RR2.opus
</region>

<region>
hivel=127
key=G5
lovel=87
offset=488
sample=Vibraphone_SoftMallets_Staccato_F_G5_RR2.opus
</region>

<region>
hivel=86
key=A#3
lovel=25
offset=5062
sample=Vibraphone_SoftMallets_Staccato_MF_A#3_RR2.opus
</region>

<region>
hivel=86
key=A#4
lovel=25
offset=4481
sample=Vibraphone_SoftMallets_Staccato_MF_A#4_RR2.opus
</region>

<region>
hivel=86
key=A#5
lovel=25
offset=553
sample=Vibraphone_SoftMallets_Staccato_MF_A#5_RR2.opus
</region>

<region>
hivel=86
key=A3
lovel=25
offset=1714
sample=Vibraphone_SoftMallets_Staccato_MF_A3_RR2.opus
</region>

<region>
hivel=86
key=A4
lovel=25
offset=796
sample=Vibraphone_SoftMallets_Staccato_MF_A4_RR2.opus
</region>

<region>
hivel=86
key=A5
lovel=25
offset=508
sample=Vibraphone_SoftMallets_Staccato_MF_A5_RR2.opus
</region>

<region>
hivel=86
key=B3
lovel=25
offset=5094
sample=Vibraphone_SoftMallets_Staccato_MF_B3_RR2.opus
</region>

<region>
hivel=86
key=B4
lovel=25
offset=703
sample=Vibraphone_SoftMallets_Staccato_MF_B4_RR2.opus
</region>

<region>
hivel=86
key=B5
lovel=25
offset=3384
sample=Vibraphone_SoftMallets_Staccato_MF_B5_RR2.opus
</region>

<region>
hivel=86
key=C#4
lovel=25
offset=2901
sample=Vibraphone_SoftMallets_Staccato_MF_C#4_RR2.opus
</region>

<region>
hivel=86
key=C#5
lovel=25
offset=588
sample=Vibraphone_SoftMallets_Staccato_MF_C#5_RR2.opus
</region>

<region>
hivel=86
key=C#6
lovel=25
offset=492
sample=Vibraphone_SoftMallets_Staccato_MF_C#6_RR2.opus
</region>

<region>
hikey=C4
hivel=86
lokey=C4
lovel=25
offset=475
sample=Vibraphone_SoftMallets_Staccato_MF_C4_RR2.opus
</region>

<region>
hivel=86
key=C5
lovel=25
offset=512
sample=Vibraphone_SoftMallets_Staccato_MF_C5_RR2.opus
</region>

<region>
hivel=86
key=C6
lovel=25
offset=5189
sample=Vibraphone_SoftMallets_Staccato_MF_C6_RR2.opus
</region>

<region>
hivel=86
key=D#4
lovel=25
offset=477
sample=Vibraphone_SoftMallets_Staccato_MF_D#4_RR2.opus
</region>

<region>
hivel=86
key=D#5
lovel=25
offset=586
sample=Vibraphone_SoftMallets_Staccato_MF_D#5_RR2.opus
</region>

<region>
hivel=86
key=D#6
lovel=25
offset=521
sample=Vibraphone_SoftMallets_Staccato_MF_D#6_RR2.opus
</region>

<region>
hivel=86
key=D4
lovel=25
offset=4178
sample=Vibraphone_SoftMallets_Staccato_MF_D4_RR2.opus
</region>

<region>
hivel=86
key=D5
lovel=25
offset=546
sample=Vibraphone_SoftMallets_Staccato_MF_D5_RR2.opus
</region>

<region>
hivel=86
key=D6
lovel=25
offset=486
sample=Vibraphone_SoftMallets_Staccato_MF_D6_RR2.opus
</region>

<region>
hivel=86
key=E4
lovel=25
offset=475
sample=Vibraphone_SoftMallets_Staccato_MF_E4_RR2.opus
</region>

<region>
hivel=86
key=E5
lovel=25
offset=518
sample=Vibraphone_SoftMallets_Staccato_MF_E5_RR2.opus
</region>

<region>
hivel=86
key=E6
lovel=25
offset=2241
sample=Vibraphone_SoftMallets_Staccato_MF_E6_RR2.opus
</region>

<region>
hivel=86
key=F#3
lovel=25
offset=511
sample=Vibraphone_SoftMallets_Staccato_MF_F#3_RR2.opus
</region>

<region>
hivel=86
key=F#4
lovel=25
offset=1487
sample=Vibraphone_SoftMallets_Staccato_MF_F#4_RR2.opus
</region>

<region>
hivel=86
key=F#5
lovel=25
offset=563
sample=Vibraphone_SoftMallets_Staccato_MF_F#5_RR2.opus
</region>

<region>
hivel=86
key=F3
lovel=25
offset=4988
sample=Vibraphone_SoftMallets_Staccato_MF_F3_RR2.opus
</region>

<region>
hivel=86
key=F4
lovel=25
offset=5073
sample=Vibraphone_SoftMallets_Staccato_MF_F4_RR2.opus
</region>

<region>
hivel=86
key=F5
lovel=25
offset=503
sample=Vibraphone_SoftMallets_Staccato_MF_F5_RR2.opus
</region>

<region>
hivel=86
key=F6
lovel=25
offset=4976
sample=Vibraphone_SoftMallets_Staccato_MF_F6_RR2.opus
</region>

<region>
hivel=86
key=G#3
lovel=25
offset=5527
sample=Vibraphone_SoftMallets_Staccato_MF_G#3_RR2.opus
</region>

<region>
hivel=86
key=G#4
lovel=25
offset=806
sample=Vibraphone_SoftMallets_Staccato_MF_G#4_RR2.opus
</region>

<region>
hivel=86
key=G#5
lovel=25
offset=560
sample=Vibraphone_SoftMallets_Staccato_MF_G#5_RR2.opus
</region>

<region>
hivel=86
key=G3
lovel=25
offset=4136
sample=Vibraphone_SoftMallets_Staccato_MF_G3_RR2.opus
</region>

<region>
hivel=86
key=G4
lovel=25
offset=739
sample=Vibraphone_SoftMallets_Staccato_MF_G4_RR2.opus
</region>

<region>
hivel=86
key=G5
lovel=25
offset=514
sample=Vibraphone_SoftMallets_Staccato_MF_G5_RR2.opus
</region>

<region>
hivel=24
key=A#3
lovel=0
offset=5949
sample=Vibraphone_SoftMallets_Staccato_P_A#3_RR2.opus
volume=20
</region>

<region>
hivel=24
key=A#4
lovel=0
offset=5369
sample=Vibraphone_SoftMallets_Staccato_P_A#4_RR2.opus
volume=20
</region>

<region>
hivel=24
key=A#5
lovel=0
offset=4232
sample=Vibraphone_SoftMallets_Staccato_P_A#5_RR2.opus
volume=20
</region>

<region>
hivel=24
key=A3
lovel=0
offset=4897
sample=Vibraphone_SoftMallets_Staccato_P_A3_RR2.opus
volume=20
</region>

<region>
hivel=24
key=A4
lovel=0
offset=3316
sample=Vibraphone_SoftMallets_Staccato_P_A4_RR2.opus
volume=20
</region>

<region>
hivel=24
key=A5
lovel=0
offset=4714
sample=Vibraphone_SoftMallets_Staccato_P_A5_RR2.opus
volume=20
</region>

<region>
hivel=24
key=B3
lovel=0
offset=5208
sample=Vibraphone_SoftMallets_Staccato_P_B3_RR2.opus
volume=20
</region>

<region>
hivel=24
key=B4
lovel=0
offset=5776
sample=Vibraphone_SoftMallets_Staccato_P_B4_RR2.opus
volume=20
</region>

<region>
hivel=24
key=B5
lovel=0
offset=4748
sample=Vibraphone_SoftMallets_Staccato_P_B5_RR2.opus
volume=20
</region>

<region>
hivel=24
key=C#4
lovel=0
offset=2324
sample=Vibraphone_SoftMallets_Staccato_P_C#4_RR2.opus
volume=20
</region>

<region>
hivel=24
key=C#5
lovel=0
offset=4271
sample=Vibraphone_SoftMallets_Staccato_P_C#5_RR2.opus
volume=20
</region>

<region>
hivel=24
key=C#6
lovel=0
offset=5464
sample=Vibraphone_SoftMallets_Staccato_P_C#6_RR2.opus
volume=20
</region>

<region>
hikey=C4
hivel=24
lokey=C4
lovel=0
offset=5875
sample=Vibraphone_SoftMallets_Staccato_P_C4_RR2.opus
volume=20
</region>

<region>
hivel=24
key=C5
lovel=0
offset=4495
sample=Vibraphone_SoftMallets_Staccato_P_C5_RR2.opus
volume=20
</region>

<region>
hivel=24
key=C6
lovel=0
offset=2961
sample=Vibraphone_SoftMallets_Staccato_P_C6_RR2.opus
volume=20
</region>

<region>
hivel=24
key=D#4
lovel=0
offset=4329
sample=Vibraphone_SoftMallets_Staccato_P_D#4_RR2.opus
volume=20
</region>

<region>
hivel=24
key=D#5
lovel=0
offset=3699
sample=Vibraphone_SoftMallets_Staccato_P_D#5_RR2.opus
volume=20
</region>

<region>
hivel=24
key=D#6
lovel=0
offset=5244
sample=Vibraphone_SoftMallets_Staccato_P_D#6_RR2.opus
volume=20
</region>

<region>
hivel=24
key=D4
lovel=0
offset=4089
sample=Vibraphone_SoftMallets_Staccato_P_D4_RR2.opus
volume=20
</region>

<region>
hivel=24
key=D5
lovel=0
offset=5075
sample=Vibraphone_SoftMallets_Staccato_P_D5_RR2.opus
volume=20
</region>

<region>
hivel=24
key=D6
lovel=0
offset=4213
sample=Vibraphone_SoftMallets_Staccato_P_D6_RR2.opus
volume=20
</region>

<region>
hivel=24
key=E4
lovel=0
offset=3679
sample=Vibraphone_SoftMallets_Staccato_P_E4_RR2.opus
volume=20
</region>

<region>
hivel=24
key=E5
lovel=0
offset=5489
sample=Vibraphone_SoftMallets_Staccato_P_E5_RR2.opus
volume=20
</region>

<region>
hivel=24
key=E6
lovel=0
offset=4771
sample=Vibraphone_SoftMallets_Staccato_P_E6_RR2.opus
volume=20
</region>

<region>
hivel=24
key=F#3
lovel=0
offset=6935
sample=Vibraphone_SoftMallets_Staccato_P_F#3_RR2.opus
volume=20
</region>

<region>
hivel=24
key=F#4
lovel=0
offset=3510
sample=Vibraphone_SoftMallets_Staccato_P_F#4_RR2.opus
volume=20
</region>

<region>
hivel=24
key=F#5
lovel=0
offset=4781
sample=Vibraphone_SoftMallets_Staccato_P_F#5_RR2.opus
volume=20
</region>

<region>
hivel=24
key=F3
lovel=0
offset=6069
sample=Vibraphone_SoftMallets_Staccato_P_F3_RR2.opus
volume=20
</region>

<region>
hivel=24
key=F4
lovel=0
offset=4673
sample=Vibraphone_SoftMallets_Staccato_P_F4_RR2.opus
volume=20
</region>

<region>
hivel=24
key=F5
lovel=0
offset=4608
sample=Vibraphone_SoftMallets_Staccato_P_F5_RR2.opus
volume=20
</region>

<region>
hivel=24
key=F6
lovel=0
offset=5045
sample=Vibraphone_SoftMallets_Staccato_P_F6_RR2.opus
volume=20
</region>

<region>
hivel=24
key=G#3
lovel=0
offset=3936
sample=Vibraphone_SoftMallets_Staccato_P_G#3_RR2.opus
volume=20
</region>

<region>
hivel=24
key=G#4
lovel=0
offset=5587
sample=Vibraphone_SoftMallets_Staccato_P_G#4_RR2.opus
volume=20
</region>

<region>
hivel=24
key=G#5
lovel=0
offset=4172
sample=Vibraphone_SoftMallets_Staccato_P_G#5_RR2.opus
volume=20
</region>

<region>
hivel=24
key=G3
lovel=0
offset=4320
sample=Vibraphone_SoftMallets_Staccato_P_G3_RR2.opus
volume=20
</region>

<region>
hivel=24
key=G4
lovel=0
offset=3555
sample=Vibraphone_SoftMallets_Staccato_P_G4_RR2.opus
volume=20
</region>

<region>
hivel=24
key=G5
lovel=0
offset=4543
sample=Vibraphone_SoftMallets_Staccato_P_G5_RR2.opus
volume=20
</region>
</group>
